HIERARCHY
ROOT Hips
{
	OFFSET 0.000000 35.082581 0.000000
	CHANNELS 6 Xposition Yposition Zposition Xrotation Yrotation Zrotation 
	JOINT Spine
	{
		OFFSET 0.000000 6.876099 0.125700
		CHANNELS 3 Xrotation Yrotation Zrotation
		JOINT Spine1
		{
			OFFSET 0.000000 5.730043 0.104720
			CHANNELS 3 Xrotation Yrotation Zrotation
			JOINT Spine1_split
			{
				OFFSET 0.000000 5.730043 0.104720
				CHANNELS 3 Xrotation Yrotation Zrotation
				JOINT Spine2
				{
					OFFSET 0.000000 5.730043 0.104720
					CHANNELS 3 Xrotation Yrotation Zrotation
					JOINT Neck
					{
						OFFSET 0.000000 10.314075 0.188496
						CHANNELS 3 Xrotation Yrotation Zrotation
						JOINT Head
						{
							OFFSET 0.000000 7.643700 -2.377400
							CHANNELS 3 Xrotation Yrotation Zrotation
							JOINT HeadTop_End
							{
								OFFSET 0.000000 43.788605 -13.619600
								CHANNELS 3 Xrotation Yrotation Zrotation
								End Site
								{
									OFFSET 0.000000 0.000000 0.000000
								}
							}
						}
					}
					JOINT LeftShoulder
					{
						OFFSET 2.196100 4.412489 0.087492
						CHANNELS 3 Xrotation Yrotation Zrotation
						JOINT LeftShoulder_split
						{
							OFFSET 2.196100 4.412489 0.087492
							CHANNELS 3 Xrotation Yrotation Zrotation
							JOINT LeftArm
							{
								OFFSET 8.771219 -2.981674 -0.026999
								CHANNELS 3 Xrotation Yrotation Zrotation
								JOINT LeftForeArm
								{
									OFFSET 8.512804 0.000000 -0.000000
									CHANNELS 3 Xrotation Yrotation Zrotation
									JOINT LeftHand
									{
										OFFSET 18.484802 0.000000 -0.000000
										CHANNELS 3 Xrotation Yrotation Zrotation
										JOINT LeftHandThumb1
										{
											OFFSET 2.499420 -1.158070 2.653252
											CHANNELS 3 Xrotation Yrotation Zrotation
											JOINT LeftHandThumb2
											{
												OFFSET 2.370079 -1.368366 1.368366
												CHANNELS 3 Xrotation Yrotation Zrotation
												JOINT LeftHandThumb3
												{
													OFFSET 2.676727 -1.545410 1.545409
													CHANNELS 3 Xrotation Yrotation Zrotation
													JOINT LeftHandThumb4
													{
														OFFSET 1.692226 -0.977005 0.977007
														CHANNELS 3 Xrotation Yrotation Zrotation
														End Site
														{
															OFFSET 0.000000 0.000000 0.000000
														}
													}
												}
											}
										}
										JOINT LeftHandIndex1
										{
											OFFSET 7.924831 -0.457527 2.345128
											CHANNELS 3 Xrotation Yrotation Zrotation
											JOINT LeftHandIndex2
											{
												OFFSET 3.643303 0.000000 0.000000
												CHANNELS 3 Xrotation Yrotation Zrotation
												JOINT LeftHandIndex3
												{
													OFFSET 3.810799 0.000000 0.000000
													CHANNELS 3 Xrotation Yrotation Zrotation
													JOINT LeftHandIndex4
													{
														OFFSET 2.403702 0.000000 0.000000
														CHANNELS 3 Xrotation Yrotation Zrotation
														End Site
														{
															OFFSET 0.000000 0.000000 0.000000
														}
													}
												}
											}
										}
										JOINT LeftHandMiddle1
										{
											OFFSET 8.563995 0.000000 -0.000000
											CHANNELS 3 Xrotation Yrotation Zrotation
											JOINT LeftHandMiddle2
											{
												OFFSET 3.861618 0.000000 0.000000
												CHANNELS 3 Xrotation Yrotation Zrotation
												JOINT LeftHandMiddle3
												{
													OFFSET 3.701603 0.000000 0.000000
													CHANNELS 3 Xrotation Yrotation Zrotation
													JOINT LeftHandMiddle4
													{
														OFFSET 2.322544 0.000000 0.000000
														CHANNELS 3 Xrotation Yrotation Zrotation
														End Site
														{
															OFFSET 0.000000 0.000000 0.000000
														}
													}
												}
											}
										}
										JOINT LeftHandRing1
										{
											OFFSET 8.426460 -0.424637 -3.286992
											CHANNELS 3 Xrotation Yrotation Zrotation
											JOINT LeftHandRing2
											{
												OFFSET 3.126408 0.000000 0.000000
												CHANNELS 3 Xrotation Yrotation Zrotation
												JOINT LeftHandRing3
												{
													OFFSET 3.085026 0.000000 0.000000
													CHANNELS 3 Xrotation Yrotation Zrotation
													JOINT LeftHandRing4
													{
														OFFSET 1.644005 0.000000 0.000000
														CHANNELS 3 Xrotation Yrotation Zrotation
														End Site
														{
															OFFSET 0.000000 0.000000 0.000000
														}
													}
												}
											}
										}
									}
								}
							}
						}
					}
					JOINT RightShoulder
					{
						OFFSET -2.196100 4.412496 0.070690
						CHANNELS 3 Xrotation Yrotation Zrotation
						JOINT RightShoulder_split
						{
							OFFSET -2.196100 4.412496 0.070690
							CHANNELS 3 Xrotation Yrotation Zrotation
							JOINT RightArm
							{
								OFFSET -8.771282 -2.981682 -0.094208
								CHANNELS 3 Xrotation Yrotation Zrotation
								JOINT RightForeArm
								{
									OFFSET -8.494598 0.000000 0.000000
									CHANNELS 3 Xrotation Yrotation Zrotation
									JOINT RightHand
									{
										OFFSET -18.483803 0.000000 0.000001
										CHANNELS 3 Xrotation Yrotation Zrotation
										JOINT RightHandThumb1
										{
											OFFSET -2.527351 -1.008072 2.575253
											CHANNELS 3 Xrotation Yrotation Zrotation
											JOINT RightHandThumb2
											{
												OFFSET -2.321518 -1.340328 1.340329
												CHANNELS 3 Xrotation Yrotation Zrotation
												JOINT RightHandThumb3
												{
													OFFSET -2.657753 -1.534454 1.534455
													CHANNELS 3 Xrotation Yrotation Zrotation
													JOINT RightHandThumb4
													{
														OFFSET -1.807510 -1.043568 1.043567
														CHANNELS 3 Xrotation Yrotation Zrotation
														End Site
														{
															OFFSET 0.000000 0.000000 0.000000
														}
													}
												}
											}
										}
										JOINT RightHandIndex1
										{
											OFFSET -8.811420 0.015533 2.887987
											CHANNELS 3 Xrotation Yrotation Zrotation
											JOINT RightHandIndex2
											{
												OFFSET -3.537502 0.000000 0.000000
												CHANNELS 3 Xrotation Yrotation Zrotation
												JOINT RightHandIndex3
												{
													OFFSET -3.356201 0.000000 0.000000
													CHANNELS 3 Xrotation Yrotation Zrotation
													JOINT RightHandIndex4
													{
														OFFSET -1.933098 0.000000 0.000000
														CHANNELS 3 Xrotation Yrotation Zrotation
														End Site
														{
															OFFSET 0.000000 0.000000 0.000000
														}
													}
												}
											}
										}
										JOINT RightHandMiddle1
										{
											OFFSET -8.178135 0.000000 0.000000
											CHANNELS 3 Xrotation Yrotation Zrotation
											JOINT RightHandMiddle2
											{
												OFFSET -3.901302 0.000000 0.000000
												CHANNELS 3 Xrotation Yrotation Zrotation
												JOINT RightHandMiddle3
												{
													OFFSET -3.909599 0.000000 0.000000
													CHANNELS 3 Xrotation Yrotation Zrotation
													JOINT RightHandMiddle4
													{
														OFFSET -2.376003 0.000000 0.000000
														CHANNELS 3 Xrotation Yrotation Zrotation
														End Site
														{
															OFFSET 0.000000 0.000000 0.000000
														}
													}
												}
											}
										}
										JOINT RightHandRing1
										{
											OFFSET -7.559013 0.014137 -2.865403
											CHANNELS 3 Xrotation Yrotation Zrotation
											JOINT RightHandRing2
											{
												OFFSET -3.449306 0.000000 0.000000
												CHANNELS 3 Xrotation Yrotation Zrotation
												JOINT RightHandRing3
												{
													OFFSET -3.362106 0.000000 0.000000
													CHANNELS 3 Xrotation Yrotation Zrotation
													JOINT RightHandRing4
													{
														OFFSET -2.076401 0.000000 0.000000
														CHANNELS 3 Xrotation Yrotation Zrotation
														End Site
														{
															OFFSET 0.000000 0.000000 0.000000
														}
													}
												}
											}
										}
									}
								}
							}
						}
					}
				}
			}
		}
	}
	JOINT LeftUpLeg
	{
		OFFSET 10.205400 -3.823500 0.155100
		CHANNELS 3 Xrotation Yrotation Zrotation
		JOINT LeftLeg
		{
			OFFSET 0.708757 -12.982077 0.567790
			CHANNELS 3 Xrotation Yrotation Zrotation
			JOINT LeftFoot
			{
				OFFSET -0.708756 -10.717838 -2.184338
				CHANNELS 3 Xrotation Yrotation Zrotation
				JOINT LeftToeBase
				{
					OFFSET 0.108149 -7.191104 7.560241
					CHANNELS 3 Xrotation Yrotation Zrotation
					JOINT LeftToe_End
					{
						OFFSET 0.070230 0.081724 4.490308
						CHANNELS 3 Xrotation Yrotation Zrotation
						End Site
						{
							OFFSET 0.000000 0.000000 0.000000
						}
					}
				}
			}
		}
	}
	JOINT RightUpLeg
	{
		OFFSET -10.205400 -3.823500 0.005500
		CHANNELS 3 Xrotation Yrotation Zrotation
		JOINT RightLeg
		{
			OFFSET -0.708756 -12.982134 0.610632
			CHANNELS 3 Xrotation Yrotation Zrotation
			JOINT RightFoot
			{
				OFFSET 0.708754 -10.717769 -1.945823
				CHANNELS 3 Xrotation Yrotation Zrotation
				JOINT RightToeBase
				{
					OFFSET -0.108140 -7.191069 7.372968
					CHANNELS 3 Xrotation Yrotation Zrotation
					JOINT RightToe_End
					{
						OFFSET -0.070227 0.081735 4.479403
						CHANNELS 3 Xrotation Yrotation Zrotation
						End Site
						{
							OFFSET 0.000000 0.000000 0.000000
						}
					}
				}
			}
		}
	}
}
MOTION
Frames: 4
Frame Time: 0.016667
3.137036 27.982628 -1.358443 163.277325 -84.905296 172.269638 27.080042 -10.192649 9.564709 22.828258 -3.476722 1.160355 0.000000 0.000000 0.000000 22.831246 -3.513601 1.117199 5.617731 -1.103829 -3.287021 -24.500420 16.764411 -15.915167 -0.000002 -0.000001 -0.000000 -0.574405 -9.850089 11.644784 0.000000 0.000000 0.000000 7.953480 23.817334 -68.381491 -0.000110 -83.763015 -0.000142 -0.593565 -15.951306 -35.333330 -6.141209 -11.690796 -6.761694 9.914119 42.595508 3.409861 -0.422811 8.108077 27.509108 -0.000001 -0.000003 -0.000001 0.255326 3.378228 -45.814348 5.654079 5.847754 -88.067469 2.162131 4.544816 -50.866379 0.000000 -0.000001 -0.000000 -0.461460 3.841597 -39.722676 6.450749 5.820379 -95.892871 2.182924 4.561565 -51.127733 -0.000002 -0.000000 0.000000 0.469722 4.966834 -39.799444 8.181032 5.368630 -113.502984 3.200477 5.218132 -63.022975 0.000000 -0.000002 -0.000001 6.747075 21.058534 15.296893 0.000000 0.000000 0.000000 -49.806836 49.425872 42.155904 -0.000042 110.780996 0.000040 -30.368653 3.752438 19.633071 -7.341100 13.749660 7.412336 9.855775 -44.489103 -3.903264 -0.115782 -14.513097 -28.973874 -0.000000 0.000003 0.000003 -0.124372 -2.384777 45.108871 4.500591 -4.654526 88.071178 1.723217 -3.618372 50.920116 -0.000002 -0.000001 -0.000001 -0.761634 -2.932895 39.031072 5.133897 -4.632763 95.881642 1.739766 -3.631686 51.181353 -0.000003 -0.000002 -0.000000 0.154758 -4.068809 39.122682 6.509737 -4.273576 113.462891 2.549581 -4.153925 63.067330 -0.000001 -0.000004 0.000000 6.792091 18.823680 14.654408 37.497602 4.649593 -7.159985 -28.068784 20.714398 -25.545205 -1.594046 0.000031 0.000004 0.000000 -0.000000 0.000000 -62.181803 21.637903 -16.241121 57.320539 -0.510282 -8.471416 -1.918847 18.483081 22.265609 -0.013006 0.000010 0.000003 0.000000 -0.000000 0.000001 
3.125176 28.051968 -1.429809 167.166121 -87.364472 176.252758 26.673407 -10.116141 9.431947 22.569679 -3.466827 1.087090 0.000000 0.000000 0.000000 22.571378 -3.500724 1.047262 5.617273 -0.871032 -3.422221 -22.991156 17.514680 -15.694492 -0.000003 -0.000000 0.000000 -0.552107 -9.621083 10.944465 0.000000 0.000000 0.000000 4.435599 26.897731 -66.445439 0.000095 -87.948883 0.000036 -0.585590 -15.037160 -35.679535 -6.141210 -11.690798 -6.761695 9.914113 42.595505 3.409859 -0.422813 8.108082 27.509108 -0.000000 -0.000001 -0.000002 0.255325 3.378227 -45.814348 5.654076 5.847754 -88.067469 2.162135 4.544813 -50.866372 -0.000001 -0.000001 0.000001 -0.461462 3.841595 -39.722679 6.450748 5.820378 -95.892878 2.182918 4.561569 -51.127733 -0.000001 0.000001 -0.000001 0.469722 4.966832 -39.799441 8.181033 5.368629 -113.502970 3.200476 5.218132 -63.022982 0.000003 -0.000000 0.000002 6.677402 21.397936 15.512702 0.000000 0.000000 0.000000 -47.870757 45.703968 40.482951 0.000030 111.430397 -0.000056 -31.320078 4.487726 19.907222 -7.341101 13.749655 7.412336 9.855771 -44.489103 -3.903257 -0.115780 -14.513093 -28.973871 -0.000001 -0.000001 0.000003 -0.124374 -2.384783 45.108871 4.500591 -4.654525 88.071178 1.723222 -3.618372 50.920116 0.000000 -0.000002 -0.000002 -0.761632 -2.932904 39.031075 5.133898 -4.632764 95.881642 1.739753 -3.631686 51.181350 0.000001 0.000002 0.000000 0.154758 -4.068815 39.122682 6.509736 -4.273570 113.462891 2.549579 -4.153923 63.067330 -0.000000 -0.000001 -0.000000 5.180703 18.421152 15.922069 38.618381 4.543044 -6.789866 -27.584137 18.505327 -25.812455 -1.594047 0.000028 0.000004 0.000000 -0.000002 0.000000 -59.845489 21.792552 -17.980031 59.393399 -0.159141 -8.449683 -4.358994 16.171364 22.894511 -0.013009 0.000011 0.000002 0.000000 -0.000002 0.000001 
3.108272 28.138012 -1.501966 81.605031 -90.314874 90.778794 26.166192 -10.085509 9.308896 22.258186 -3.473026 1.011019 0.000000 0.000000 0.000000 22.258238 -3.504557 0.974820 5.582344 -0.609717 -3.490649 -21.431935 18.334335 -15.324475 0.000001 -0.000000 0.000000 -0.520526 -9.531916 10.234641 0.000000 0.000000 0.000000 1.463525 28.835488 -64.955085 -0.000180 -92.579697 -0.000242 -0.628437 -14.115742 -35.772402 -6.141214 -11.690799 -6.761697 9.914117 42.595505 3.409859 -0.422810 8.108078 27.509111 -0.000002 0.000001 -0.000000 0.255324 3.378229 -45.814348 5.654076 5.847754 -88.067469 2.162134 4.544819 -50.866372 0.000000 0.000002 -0.000000 -0.461463 3.841596 -39.722686 6.450749 5.820376 -95.892871 2.182922 4.561566 -51.127726 0.000002 -0.000000 0.000000 0.469721 4.966831 -39.799444 8.181037 5.368630 -113.502977 3.200482 5.218133 -63.022975 -0.000000 -0.000000 0.000003 6.665677 21.639416 15.541462 0.000000 0.000000 0.000000 -46.863796 42.548359 39.774473 -0.000031 111.812703 0.000008 -31.896259 5.342530 20.119371 -7.341100 13.749660 7.412336 9.855773 -44.489103 -3.903256 -0.115784 -14.513100 -28.973871 0.000002 0.000000 -0.000000 -0.124368 -2.384773 45.108868 4.500590 -4.654534 88.071178 1.723219 -3.618371 50.920112 0.000000 -0.000002 0.000000 -0.761629 -2.932894 39.031072 5.133898 -4.632764 95.881642 1.739754 -3.631688 51.181350 0.000003 -0.000000 -0.000002 0.154762 -4.068805 39.122682 6.509738 -4.273571 113.462891 2.549580 -4.153918 63.067324 -0.000001 -0.000003 -0.000001 3.387999 17.912250 17.218273 39.697845 4.464943 -6.404750 -27.009327 16.092617 -26.019712 -1.594046 0.000020 0.000003 -0.000000 -0.000001 -0.000000 -57.111344 21.738738 -19.929025 61.292540 0.201520 -8.358471 -6.844269 13.714987 23.451270 -0.013009 0.000010 0.000004 0.000000 -0.000001 0.000001 
3.085735 28.229641 -1.574065 155.094635 -92.857317 164.380196 25.569144 -10.120911 9.145677 21.901878 -3.506262 0.903641 0.000000 0.000000 0.000000 21.899866 -3.536335 0.871490 5.510148 -0.303582 -3.526241 -19.806034 19.269323 -14.830555 0.000002 0.000002 0.000001 -0.487519 -9.491398 9.564195 0.000000 0.000000 0.000000 -0.653368 29.569795 -64.021098 0.000071 -97.278710 0.000027 -0.727247 -13.207227 -35.636768 -6.141212 -11.690801 -6.761698 9.914119 42.595512 3.409862 -0.422809 8.108077 27.509111 -0.000003 -0.000000 -0.000004 0.255323 3.378228 -45.814348 5.654080 5.847755 -88.067469 2.162135 4.544815 -50.866372 0.000000 -0.000000 0.000000 -0.461459 3.841596 -39.722679 6.450753 5.820379 -95.892878 2.182922 4.561568 -51.127733 -0.000000 -0.000000 -0.000000 0.469724 4.966837 -39.799441 8.181032 5.368628 -113.502977 3.200480 5.218134 -63.022975 0.000000 -0.000002 0.000001 6.712806 21.856317 15.378760 0.000000 0.000000 0.000000 -46.521559 39.994139 39.770074 -0.000076 111.959074 0.000050 -32.012420 6.164903 20.344921 -7.341098 13.749660 7.412342 9.855780 -44.489100 -3.903259 -0.115782 -14.513098 -28.973874 0.000001 -0.000005 0.000001 -0.124369 -2.384782 45.108871 4.500591 -4.654534 88.071178 1.723214 -3.618368 50.920116 -0.000002 -0.000001 -0.000002 -0.761630 -2.932901 39.031068 5.133898 -4.632763 95.881642 1.739758 -3.631688 51.181346 -0.000001 -0.000003 -0.000002 0.154762 -4.068814 39.122685 6.509738 -4.273577 113.462891 2.549581 -4.153920 63.067324 -0.000000 -0.000003 -0.000001 1.523497 17.348974 18.477549 40.663340 4.427872 -6.075000 -26.352331 13.495726 -26.145962 -1.594045 0.000030 0.000003 0.000000 0.000001 0.000000 -54.118399 21.481812 -22.032928 62.996098 0.567029 -8.162281 -9.302821 11.243388 23.898132 -0.013006 0.000012 0.000003 0.000000 -0.000001 0.000001 
